<svg id="ak" height="512" viewBox="0 0 48 48" width="512" xmlns="http://www.w3.org/2000/svg"><path d="m24.12 24.77c1.71 1.86 4.09 2.96 6.15 3.24 2.04.27 3.76-.3 4.53-1.45.99-1.49.16-4.55-2.83-4.55-.2 0-.4-.01-.62-.04 1.65-.11 3.33-.51 4.84-1.07 2.2-.82 4.05-1.99 4.97-3.06.55-.64.8-1.28.8-1.83 0-.95-.49-1.97-1.26-2.74s-1.79-1.26-2.74-1.26c-.44 0-.87.15-1.29.47-.39.29-.8.75-1.28 1.29-.75.84-1.74 1.9-3.42 2.5-.4.14-.84.26-1.32.35 2.38-1.42 4.31-3.85 4.31-7.61 0-1.18-.6-2.45-1.54-3.41s-2.21-1.59-3.46-1.59c-.45 0-.97.24-1.38.93-.52.87-1.02 2.87-1.76 4.99-.34-.43-.72-.81-1.11-1.12-.84-.67-1.72-1.03-2.25-1.07-.51-.04-.88.14-1.12.37-.22.22-.37.51-.37.91 0 1.72-.34 4.1-.62 5.78-2.53-2.45-1.52-6.2-1.29-7.79.09-.64.04-1.1-.06-1.32-.21-.47-.56-.68-1.03-.68-2.49 0-4.4 1.48-4.97 3.76-.26 1.05-.36 2.05-.3 2.98-.27-.37-.52-.71-.77-1.02-.88-1.08-1.76-1.72-2.96-1.72-.7 0-1.22.35-1.57.97-.45.8-.5 2.26-.43 3.11.13 1.56.7 2.87 1.57 3.93-1.11.07-1.94.44-2.53 1.03-.66.66-1.04 1.64-1.04 2.96 0 .74.3 1.42.89 2 .67.68 1.77 1.23 3.11 1.57 1.46.36 3.23.47 4.97.25-.13.75-.02 1.65.25 2.36.57 1.5 1.88 2.08 3.4 1.72 1.12-.26 2.4-1.1 3.44-2.57.07-.09.13-.19.2-.29.22 1.87.54 3.4.9 4.76-.89-.19-2.2-.46-3.28-.64-.92-.14-1.7-.2-2.06-.14-.54.09-.96.47-1.17 1.11-.08.25-.18.72-.24.98-.46.05-1.15-.04-1.84-.1-1.16-.1-2.32-.15-2.9.05-.33.11-.55.31-.69.54-.16.25-.24.58-.18.97.03.24.18.73.25.97-.3.24-.84.52-1.39.82-.89.5-1.8 1.03-2.22 1.45-.66.66-.6 1.32-.25 1.79.12.16.31.33.58.46.3.15.78.28 1.35.37 1.37.23 3.45.29 4.38.48l.21.3c.15.22.31.41.46.52.38.3.77.34 1.13.22.15-.05.39-.17.66-.37.38-.28.92-.74 1.43-1.12.04-.03.07-.06.12-.08.03.17.06.33.1.48.22.74.7 1.14 1.35 1.15.34 0 .79-.13 1.26-.51.58-.48 1.32-1.45 2.04-2.58.73-1.15 1.44-2.47 1.95-3.55.71 2.39 1.22 4.7.8 8.52-.06.55.34 1.04.88 1.1.55.06 1.04-.34 1.1-.88.15-1.34.19-2.51.16-3.56.58.85 1.15 1.55 1.62 1.94.46.38.91.52 1.26.51.65-.02 1.13-.42 1.35-1.15.04-.14.08-.31.1-.48.04.03.08.06.12.08.51.38 1.05.85 1.43 1.12.27.2.5.32.66.37.36.12.75.08 1.13-.22.15-.12.31-.3.46-.52l.21-.3c.94-.19 3.01-.25 4.38-.48.58-.09 1.05-.22 1.35-.37.27-.13.46-.3.58-.46.35-.47.41-1.13-.25-1.79-.42-.42-1.33-.95-2.22-1.46-.54-.31-1.09-.58-1.39-.82.07-.24.22-.73.25-.97.05-.39-.03-.72-.18-.97-.14-.23-.36-.43-.69-.54-.58-.19-1.74-.15-2.9-.05-.69.06-1.38.15-1.84.1-.05-.25-.16-.73-.24-.98-.21-.64-.63-1.02-1.17-1.11-.35-.06-1.14 0-2.06.14-1.21.19-2.69.51-3.57.7-.56-1.89-1.12-4.04-1.38-7.08zm6.33 8.22c.05.24.13.59.19.8.18.61.54 1.01 1.01 1.16.58.19 1.74.15 2.9.05.52-.04 1.03-.1 1.45-.11-.06.22-.12.46-.13.63-.04.44.07.81.31 1.11.26.33.9.77 1.65 1.2.41.23.85.47 1.25.7-1.54.21-3.63.3-4.39.52-.22.06-.47.21-.69.47-.04.05-.09.11-.14.18-.43-.34-1.06-.83-1.48-1.12-.56-.38-1.09-.58-1.41-.58-.63 0-1.13.39-1.34 1.17-.02.08-.04.16-.05.24-.37-.43-.84-1.02-1.19-1.57-.81-1.28-1.67-3.11-2.12-4.11.86-.19 2.09-.44 3.11-.6.41-.06.79-.12 1.06-.14zm-11.97-.98c.28.02.65.08 1.06.14 1.02.16 2.25.42 3.11.6-.45 1-1.31 2.83-2.12 4.11-.35.55-.82 1.14-1.19 1.57-.02-.08-.03-.16-.05-.24-.21-.79-.71-1.17-1.34-1.17-.33 0-.86.19-1.41.58-.42.29-1.05.78-1.48 1.12-.05-.07-.1-.14-.14-.18-.22-.26-.48-.41-.69-.47-.76-.22-2.85-.31-4.39-.52.4-.23.84-.47 1.25-.7.75-.43 1.39-.87 1.65-1.2.24-.3.35-.68.31-1.11-.01-.16-.07-.4-.13-.63.42 0 .94.07 1.45.11 1.16.1 2.32.15 2.9-.05.47-.15.83-.56 1.01-1.16.06-.21.14-.56.19-.8zm11.25 4.97 4 1c.53.13 1.08-.19 1.21-.73.13-.53-.19-1.08-.73-1.21l-4-1c-.53-.13-1.08.19-1.21.73-.13.53.19 1.08.73 1.21zm-11.01-2.92-4 1c-.54.13-.86.68-.73 1.21.13.54.68.86 1.21.73l4-1c.53-.13.86-.68.73-1.21-.13-.54-.68-.86-1.21-.73zm3.2-12.56c-.5 2.64-1.75 4.39-3.03 5.15-.77.46-1.55.54-1.82-.18-.09-.24-.16-.53-.18-.81-.01-.17 0-.34.02-.49.01-.07-.01-.17.06-.17.73 0 1.63-.34 2.54-1.02.81-.6 1.65-1.46 2.4-2.49zm2.18-1.28c-.01.14-.02.28-.04.42.73 2.61 2.91 4.31 5.03 5.04.96.33 1.91.47 2.71.38.59-.06 1.09-.22 1.35-.61.08-.12.09-.28.08-.44-.05-.51-.48-1.01-1.25-1.01-2.39 0-5.62-1.53-7.88-3.78zm-3.65-.77c-1.36 2.8-5.08 3.67-8.13 3.47-1.52-.1-2.89-.47-3.74-1.07-.34-.24-.61-.5-.61-.85 0-.68.12-1.2.46-1.54s.86-.46 1.54-.46c.24 0 .53.09.87.2.7.23 1.55.57 2.51.85 2.04.58 4.52.87 7.1-.6zm17.55-5.45c.46 0 .93.3 1.3.68.38.38.68.86.68 1.32 0 .08-.05.16-.11.24-.12.2-.31.41-.54.62-.85.78-2.23 1.56-3.82 2.15-2 .75-4.34 1.19-6.39.88-1.15-.18-2.21-.61-3.02-1.4 2.86.48 4.97.22 6.56-.35 2.07-.74 3.31-2.02 4.23-3.05.27-.3.51-.58.74-.8.08-.08.15-.15.23-.21.04-.03.12-.08.14-.09zm-27.86-2.99c.36.05.63.28.91.58.32.34.64.77.99 1.25 1.2 1.63 2.76 3.75 5.94 5.19-1.35.21-2.79.08-4.08-.38-2.05-.73-3.72-2.32-3.92-4.72-.03-.42-.05-1.05.06-1.58.02-.1.07-.23.1-.32zm7.88-3.88c-1.03.29-1.8 1.05-2.07 2.11-.84 3.36.51 6.16 3.25 6.78.24.06.47.1.68.13-2.63-2.59-2.3-6.24-1.94-8.5.03-.17.05-.35.08-.53zm9 8.83c2.81-.71 5.96-2.74 5.96-6.96 0-.7-.4-1.44-.96-2.01-.48-.49-1.09-.87-1.72-.97-.1.21-.28.59-.4.93-.51 1.44-1.07 3.62-1.93 5.61.01.14.02.29.02.44 0 1.29-.38 2.25-.96 2.96zm-3.07-5.95c.18.1.37.21.53.34.75.6 1.5 1.53 1.5 2.65 0 1.52-.94 2.26-1.86 2.61-.31.12-.63.21-.91.26.26-1.46.64-3.88.75-5.86z" fill-rule="evenodd"/></svg>