<svg width="31" height="31" viewBox="0 0 31 31" fill="none" xmlns="http://www.w3.org/2000/svg">
<path d="M23.0732 14.9043C23.5964 15.9966 23.8894 17.222 23.8894 18.5129C23.8894 23.1459 20.1355 26.8998 15.5024 26.8998C10.8694 26.8998 7.11549 23.1459 7.11549 18.5129C7.11549 17.2196 7.40854 15.9966 7.93167 14.9043C6.8325 16.4616 6.24355 18.3215 6.24604 20.2276C6.24604 25.3402 10.3899 29.484 15.5024 29.484C20.615 29.484 24.7589 25.3402 24.7589 20.2276C24.7586 18.3219 24.17 16.4628 23.0732 14.9043Z" fill="#4B8A99"/>
<path d="M7.85653 11.5766C3.63278 15.798 3.63278 22.6422 7.85653 26.8659C12.0779 31.0873 18.9221 31.0873 23.1458 26.8659C27.3696 22.6446 27.3672 15.8004 23.1458 11.5766C18.9221 7.35531 12.0779 7.35531 7.85653 11.5766ZM21.31 25.948C18.0163 29.2418 12.6785 29.2418 9.38474 25.948C6.09099 22.6543 6.09099 17.3165 9.38474 14.0227C12.6785 10.729 18.0163 10.729 21.31 14.0227C24.6038 17.3165 24.6038 22.6543 21.31 25.948Z" fill="#BDBDBD"/>
<path d="M9.1886 5.03516L11.0656 2.18945L12.5187 3.85086L9.1886 5.03516Z" fill="#64B5F6"/>
<path d="M13.4923 7.21699L9.1886 5.03488L12.5187 3.85059L13.4923 7.21699Z" fill="#81D4FA"/>
<path d="M15.6211 4.51176L12.5187 3.85059L13.4923 7.21699L15.6211 4.51176Z" fill="white"/>
<path d="M22.056 5.03516L20.1791 2.18945L18.726 3.85086L22.056 5.03516Z" fill="#1E88E5"/>
<path d="M17.7499 7.21699L22.056 5.03488L18.726 3.85059L17.7499 7.21699Z" fill="#B3E5FC"/>
<path d="M15.6211 4.51176L18.7259 3.85059L17.7499 7.21699L15.6211 4.51176Z" fill="white"/>
<path d="M17.7499 7.21695L15.6211 4.51172L13.4922 7.21695H17.7499Z" fill="#B2EBF2"/>
<path d="M13.3736 0.96875H17.871L20.1791 2.18938L18.7259 3.85078L15.6211 4.51195L12.5187 3.85078L11.0656 2.18938L13.3736 0.96875Z" fill="#B3E5FC"/>
<path d="M15.6211 11.4047L9.1886 5.03516L13.4923 7.21727L15.6211 11.4047Z" fill="#1E88E5"/>
<path d="M15.6211 11.4047L22.056 5.03516L17.7499 7.21727L15.6211 11.4047Z" fill="#81D4FA"/>
<path d="M17.7499 7.21729L15.6211 11.4047L13.4922 7.21729H17.7499Z" fill="#E1F5FE"/>
<path d="M8.24646 12.4096C8.95123 12.6397 8.53224 13.2984 8.38451 13.4437C7.80568 14.0153 7.65068 14.3858 7.28982 14.984C6.91443 15.604 6.47607 15.6355 6.29685 15.265C5.80763 14.2502 7.42302 12.1383 8.24646 12.4096ZM21.1066 26.9747C19.8569 27.7352 19.4089 27.43 19.7286 27.2169C20.9322 26.4129 22.5476 25.294 23.5503 22.1891C23.6205 21.9687 23.8579 21.8113 24.0758 21.8888C24.2744 21.959 24.3907 22.1697 24.335 22.3708C23.5043 25.4199 22.1117 26.362 21.1066 26.9747Z" fill="white"/>
<path d="M19.8981 7.19287L16.6528 10.3752L16.1757 10.3292L16.2725 8.22217C16.2725 7.81045 16.0158 7.50529 15.6235 7.50529C15.2287 7.50529 14.9938 7.81045 14.9938 8.22217L15.0907 10.3292L14.6136 10.3752L11.3658 7.19287C11.3658 7.19287 10.5206 7.55857 11.3319 8.36264C12.2498 9.27084 14.5046 11.4239 14.5046 11.4239H16.7569C16.7569 11.4239 19.0141 9.27084 19.9296 8.36264C20.7433 7.55857 19.8981 7.19287 19.8981 7.19287Z" fill="#BDBDBD"/>
<path d="M19.8909 7.18066L17.2462 9.79387C17.0209 10.0143 17.1251 10.3993 17.4327 10.472C18.1229 10.6318 19.2563 11.046 20.787 12.1189C21.8187 12.843 22.4048 12.7146 22.6276 12.3029C22.9085 11.7846 22.6833 11.1186 22.182 10.7214C20.5859 9.45723 19.2103 9.06488 19.2103 9.06488C19.4695 8.81543 19.7213 8.57324 19.932 8.36254C20.7434 7.55848 19.8909 7.18066 19.8909 7.18066Z" fill="#8E8E8E"/>
</svg>
